<?xml version="1.0" encoding="UTF-8" standalone="no"?>
<svg width="14px" height="11px" viewBox="0 0 14 11" version="1.1" xmlns="http://www.w3.org/2000/svg" xmlns:xlink="http://www.w3.org/1999/xlink">
    <!-- Generator: Sketch 3.6 (26304) - http://www.bohemiancoding.com/sketch -->
    <title>king-hat</title>
    <desc>Created with Sketch.</desc>
    <defs></defs>
    <g id="Page-1" stroke="none" stroke-width="1" fill="none" fill-rule="evenodd">
        <g id="IconFontArtBoard" transform="translate(-5.000000, -7.000000)">
            <g id="king-hat" transform="translate(5.000000, 7.000000)">
                <rect id="Rectangle-249" fill="#FFA3AE" x="0.84" y="9.625" width="12.6" height="1.375"></rect>
                <path d="M11.3781818,3.678125 L8.4,3.678125 L7.14,1.1 L5.88,3.678125 L2.90181818,3.678125 L0.84,1.1 L0.84,3.9359375 L1.05460161,3.9359375 C0.921566479,4.0786172 0.84,4.26928395 0.84,4.47873643 L0.84,8.54938857 C0.84,8.99519882 1.20146475,9.35 1.64735411,9.35 L12.6326459,9.35 C13.076495,9.35 13.44,8.99155405 13.44,8.54938857 L13.44,4.47873643 C13.44,4.26826636 13.359435,4.07808083 13.2274566,3.9359375 L13.44,3.9359375 L13.44,1.1 L11.3781818,3.678125 Z" id="Rectangle-250" fill="#FF6262"></path>
                <ellipse id="Oval-120" fill="#FF6262" cx="0.84" cy="0.9625" rx="0.84" ry="0.9625"></ellipse>
                <ellipse id="Oval-120-Copy" fill="#FF4F63" cx="7" cy="0.9625" rx="0.84" ry="0.9625"></ellipse>
                <ellipse id="Oval-120-Copy-2" fill="#FF6262" cx="13.16" cy="0.9625" rx="0.84" ry="0.9625"></ellipse>
            </g>
        </g>
    </g>
</svg>