<?xml version="1.0" encoding="UTF-8" standalone="no"?>
<svg width="18px" height="7px" viewBox="0 0 18 7" version="1.1" xmlns="http://www.w3.org/2000/svg" xmlns:xlink="http://www.w3.org/1999/xlink">
    <!-- Generator: Sketch 3.6 (26304) - http://www.bohemiancoding.com/sketch -->
    <title>power</title>
    <desc>Created with Sketch.</desc>
    <defs></defs>
    <g id="Page-1" stroke="none" stroke-width="1" fill="none" fill-rule="evenodd">
        <g id="IconFontArtBoard" transform="translate(-4.000000, -7.000000)" fill="#000000">
            <g id="power" transform="translate(4.000000, 7.000000)">
                <path d="M1.49501953,0.35 C0.669343043,0.35 0,1.01193938 0,1.85898793 L0,5.49101207 C0,6.32440309 0.675468877,7 1.49501953,7 L14.7049805,7 C15.530657,7 16.2,6.33806062 16.2,5.49101207 L16.2,1.85898793 C16.2,1.02559691 15.5245311,0.35 14.7049805,0.35 L1.49501953,0.35 Z M16.56,2.45 L16.56,4.9 L17.1,4.9 C17.3982338,4.9 17.64,4.6561276 17.64,4.35626559 L17.64,2.99373441 C17.64,2.69343819 17.3895117,2.45 17.1,2.45 L16.56,2.45 Z M1.3518922,0.7 C0.804085263,0.7 0.36,1.14721705 0.36,1.70933639 L0.36,5.64066361 C0.36,6.1981047 0.806591835,6.65 1.3518922,6.65 L14.8481078,6.65 C15.3959147,6.65 15.84,6.20278295 15.84,5.64066361 L15.84,1.70933639 C15.84,1.1518953 15.3934082,0.7 14.8481078,0.7 L1.3518922,0.7 Z M1.21109161,1.05 C0.939869205,1.05 0.72,1.27558594 0.72,1.55339207 L0.72,5.79660793 C0.72,6.07462369 0.951844354,6.3 1.21109161,6.3 L14.9889084,6.3 C15.2601308,6.3 15.48,6.07441406 15.48,5.79660793 L15.48,1.55339207 C15.48,1.27537631 15.2481556,1.05 14.9889084,1.05 L1.21109161,1.05 Z" id="Battery"></path>
            </g>
        </g>
    </g>
</svg>